<?xml version="1.0" encoding="UTF-8"?>
<!-- Generator: Adobe Illustrator 19.1.0, SVG Export Plug-In . SVG Version: 6.00 Build 0)  -->
<!DOCTYPE svg PUBLIC "-//W3C//DTD SVG 1.1//EN" "http://www.w3.org/Graphics/SVG/1.1/DTD/svg11.dtd">
<svg version="1.1" id="FR_Download_on_the_App_Store" xmlns="http://www.w3.org/2000/svg" xmlns:xlink="http://www.w3.org/1999/xlink" x="0px" y="0px" viewBox="0 0 135 40" style="enable-background:new 0 0 135 40;" xml:space="preserve">
<style type="text/css">
	.st0{fill:#A6A6A6;}
	.st1{fill:#FFFFFF;}
</style>
<g>
	<path class="st0" d="M130.2,40H4.8C2.2,40,0,37.9,0,35.3V4.7C0,2.1,2.2,0,4.8,0h125.5c2.6,0,4.8,2.1,4.8,4.7v30.5   C135,37.9,132.8,40,130.2,40L130.2,40z"/>
	<path d="M134,35.3c0,2.1-1.7,3.8-3.8,3.8H4.7c-2.1,0-3.8-1.7-3.8-3.8V4.7c0-2.1,1.7-3.8,3.8-3.8h125.5c2.1,0,3.8,1.7,3.8,3.8   L134,35.3L134,35.3z"/>
	<g>
		<g>
			<path class="st1" d="M30.2,19.8c0-3.2,2.6-4.8,2.8-4.9c-1.5-2.2-3.9-2.5-4.7-2.5c-2-0.2-3.9,1.2-4.9,1.2c-1,0-2.6-1.2-4.2-1.1     c-2.1,0-4.1,1.3-5.2,3.2c-2.3,3.9-0.6,9.7,1.6,12.9c1.1,1.6,2.4,3.3,4,3.2c1.6-0.1,2.2-1,4.2-1c1.9,0,2.5,1,4.2,1     c1.7,0,2.8-1.6,3.9-3.1c1.3-1.8,1.8-3.5,1.8-3.6C33.5,24.9,30.2,23.6,30.2,19.8z"/>
			<path class="st1" d="M27,10.3c0.9-1.1,1.5-2.6,1.3-4.1c-1.3,0.1-2.8,0.9-3.8,1.9c-0.8,0.9-1.5,2.5-1.3,3.9     C24.6,12.2,26,11.4,27,10.3z"/>
		</g>
	</g>
	<g>
		<path class="st1" d="M45.2,31.5h-1.9V18.7h1.9V31.5z"/>
		<path class="st1" d="M50.3,19c-0.5,1.8-1.1,3.3-1.8,4.5l-1.2,0.1c0.5-1.4,0.9-2.9,1.1-4.4L50.3,19z"/>
		<path class="st1" d="M59.8,31.5h-2.1l-1.1-3.6h-3.9l-1.1,3.6h-2l3.9-12.1h2.4L59.8,31.5z M56.2,26.4l-1-3.2    c-0.1-0.3-0.3-1.1-0.6-2.3h0c-0.1,0.5-0.3,1.3-0.6,2.3l-1,3.2H56.2z"/>
		<path class="st1" d="M69.8,27c0,1.5-0.4,2.7-1.2,3.5c-0.7,0.8-1.6,1.2-2.7,1.2c-1.2,0-2-0.4-2.5-1.2h0v4.6h-1.9v-9.4    c0-0.9,0-1.9-0.1-2.9h1.7l0.1,1.4h0c0.6-1,1.6-1.6,3-1.6c1,0,1.9,0.4,2.6,1.2C69.5,24.6,69.8,25.7,69.8,27z M67.8,27.1    c0-0.9-0.2-1.6-0.6-2.1c-0.4-0.6-1-0.9-1.7-0.9c-0.5,0-0.9,0.2-1.3,0.5c-0.4,0.3-0.6,0.7-0.8,1.2c-0.1,0.2-0.1,0.4-0.1,0.6v1.5    c0,0.6,0.2,1.2,0.6,1.6c0.4,0.4,0.9,0.7,1.5,0.7c0.7,0,1.3-0.3,1.7-0.8C67.6,28.8,67.8,28,67.8,27.1z"/>
		<path class="st1" d="M79.9,27c0,1.5-0.4,2.7-1.2,3.5c-0.7,0.8-1.6,1.2-2.7,1.2c-1.2,0-2-0.4-2.5-1.2h0v4.6h-1.9v-9.4    c0-0.9,0-1.9-0.1-2.9h1.7l0.1,1.4h0c0.6-1,1.6-1.6,3-1.6c1,0,1.9,0.4,2.6,1.2C79.5,24.6,79.9,25.7,79.9,27z M77.9,27.1    c0-0.9-0.2-1.6-0.6-2.1c-0.4-0.6-1-0.9-1.7-0.9c-0.5,0-0.9,0.2-1.3,0.5c-0.4,0.3-0.6,0.7-0.8,1.2c-0.1,0.2-0.1,0.4-0.1,0.6v1.5    c0,0.6,0.2,1.2,0.6,1.6c0.4,0.4,0.9,0.7,1.5,0.7c0.7,0,1.3-0.3,1.7-0.8C77.7,28.8,77.9,28,77.9,27.1z"/>
		<path class="st1" d="M91.1,28.1c0,1-0.4,1.9-1.1,2.5c-0.8,0.7-1.9,1.1-3.3,1.1c-1.3,0-2.4-0.3-3.1-0.8l0.4-1.6    c0.9,0.5,1.8,0.8,2.8,0.8c0.7,0,1.3-0.2,1.7-0.5c0.4-0.3,0.6-0.8,0.6-1.3c0-0.5-0.2-0.9-0.5-1.2c-0.3-0.3-0.9-0.6-1.7-0.9    c-2.1-0.8-3.2-2-3.2-3.5c0-1,0.4-1.8,1.1-2.5c0.7-0.6,1.7-1,3-1c1.1,0,2,0.2,2.8,0.6l-0.5,1.6c-0.7-0.4-1.5-0.6-2.3-0.6    c-0.7,0-1.2,0.2-1.6,0.5c-0.3,0.3-0.5,0.7-0.5,1.1c0,0.5,0.2,0.9,0.6,1.2c0.3,0.3,0.9,0.6,1.8,0.9c1,0.4,1.8,0.9,2.3,1.5    C90.9,26.6,91.1,27.3,91.1,28.1z"/>
		<path class="st1" d="M97.6,24.2h-2.1v4.2c0,1.1,0.4,1.6,1.1,1.6c0.3,0,0.6,0,0.9-0.1l0.1,1.5c-0.4,0.1-0.9,0.2-1.5,0.2    c-0.8,0-1.4-0.2-1.8-0.7c-0.4-0.5-0.6-1.3-0.6-2.4v-4.4h-1.3v-1.5h1.3v-1.6l1.9-0.6v2.2h2.1V24.2z"/>
		<path class="st1" d="M107.2,27.1c0,1.3-0.4,2.4-1.2,3.3c-0.8,0.9-1.9,1.3-3.2,1.3c-1.3,0-2.3-0.4-3.1-1.3    c-0.8-0.9-1.1-1.9-1.1-3.2c0-1.4,0.4-2.5,1.2-3.3c0.8-0.9,1.8-1.3,3.2-1.3c1.3,0,2.3,0.4,3.1,1.3    C106.8,24.7,107.2,25.8,107.2,27.1z M105.2,27.1c0-0.8-0.2-1.5-0.5-2.1c-0.4-0.7-1-1-1.7-1c-0.8,0-1.4,0.3-1.8,1    c-0.3,0.6-0.5,1.3-0.5,2.1c0,0.8,0.2,1.5,0.5,2.1c0.4,0.7,1,1,1.8,1c0.7,0,1.3-0.4,1.7-1.1C105,28.6,105.2,27.9,105.2,27.1z"/>
		<path class="st1" d="M113.5,24.5c-0.2,0-0.4-0.1-0.6-0.1c-0.7,0-1.2,0.3-1.6,0.8c-0.3,0.5-0.5,1-0.5,1.7v4.6h-1.9l0-6    c0-1,0-1.9-0.1-2.8h1.7l0.1,1.7h0.1c0.2-0.6,0.5-1,1-1.4c0.4-0.3,0.9-0.5,1.4-0.5c0.2,0,0.3,0,0.5,0V24.5z"/>
		<path class="st1" d="M122.2,26.7c0,0.3,0,0.6-0.1,0.9h-5.8c0,0.9,0.3,1.5,0.8,2c0.5,0.4,1.1,0.6,1.9,0.6c0.9,0,1.7-0.1,2.4-0.4    l0.3,1.3c-0.8,0.4-1.8,0.5-2.9,0.5c-1.4,0-2.4-0.4-3.2-1.2c-0.8-0.8-1.2-1.9-1.2-3.2c0-1.3,0.4-2.4,1.1-3.3    c0.8-0.9,1.8-1.4,3.1-1.4c1.3,0,2.2,0.5,2.9,1.4C122,24.7,122.2,25.6,122.2,26.7z M120.4,26.2c0-0.6-0.1-1.1-0.4-1.5    c-0.3-0.5-0.9-0.8-1.5-0.8c-0.6,0-1.2,0.3-1.5,0.8c-0.3,0.4-0.5,0.9-0.6,1.5H120.4z"/>
	</g>
	<g>
		<g>
			<path class="st1" d="M47.8,7.8H46v5.7h-1V7.8h-1.9V6.9h4.8V7.8z"/>
			<path class="st1" d="M53,10.9c0,0.2,0,0.3,0,0.5h-3.1c0,0.5,0.2,0.8,0.5,1.1c0.3,0.2,0.6,0.3,1,0.3c0.5,0,0.9-0.1,1.3-0.2     l0.2,0.7c-0.4,0.2-1,0.3-1.6,0.3c-0.7,0-1.3-0.2-1.7-0.6c-0.4-0.4-0.6-1-0.6-1.7c0-0.7,0.2-1.3,0.6-1.8c0.4-0.5,1-0.8,1.6-0.8     c0.7,0,1.2,0.3,1.5,0.8C52.8,9.8,53,10.3,53,10.9z M52,10.6c0-0.3-0.1-0.6-0.2-0.8c-0.2-0.3-0.5-0.4-0.8-0.4     c-0.3,0-0.6,0.1-0.8,0.4c-0.2,0.2-0.3,0.5-0.3,0.8H52z M52.4,6.7l-1.2,1.4h-0.7l0.8-1.4H52.4z"/>
			<path class="st1" d="M55.6,13.4h-1V6.6h1V13.4z"/>
			<path class="st1" d="M61.3,10.9c0,0.2,0,0.3,0,0.5h-3.1c0,0.5,0.2,0.8,0.5,1.1c0.3,0.2,0.6,0.3,1,0.3c0.5,0,0.9-0.1,1.3-0.2     l0.2,0.7c-0.4,0.2-1,0.3-1.6,0.3c-0.7,0-1.3-0.2-1.7-0.6c-0.4-0.4-0.6-1-0.6-1.7c0-0.7,0.2-1.3,0.6-1.8c0.4-0.5,1-0.8,1.6-0.8     c0.7,0,1.2,0.3,1.5,0.8C61.2,9.8,61.3,10.3,61.3,10.9z M60.3,10.6c0-0.3-0.1-0.6-0.2-0.8c-0.2-0.3-0.5-0.4-0.8-0.4     c-0.3,0-0.6,0.1-0.8,0.4c-0.2,0.2-0.3,0.5-0.3,0.8H60.3z M60.7,6.7l-1.2,1.4h-0.7l0.8-1.4H60.7z"/>
			<path class="st1" d="M66.2,8.8L66,9.6c-0.3-0.1-0.6-0.2-0.9-0.2c-0.5,0-0.8,0.2-1.1,0.5c-0.3,0.3-0.4,0.7-0.4,1.2     c0,0.5,0.1,0.9,0.4,1.2c0.3,0.3,0.6,0.4,1.1,0.4c0.3,0,0.6-0.1,1-0.2l0.1,0.8c-0.3,0.2-0.8,0.2-1.3,0.2c-0.7,0-1.3-0.2-1.7-0.7     c-0.4-0.4-0.6-1-0.6-1.8c0-0.7,0.2-1.3,0.7-1.8c0.5-0.5,1.1-0.7,1.9-0.7C65.5,8.6,65.9,8.7,66.2,8.8z"/>
			<path class="st1" d="M71.7,13.4h-1v-2.7c0-0.8-0.3-1.3-1-1.3c-0.5,0-0.8,0.2-1,0.7c0,0.1,0,0.2,0,0.4v2.8h-1V6.6h1v2.8h0     c0.3-0.5,0.8-0.8,1.4-0.8c0.4,0,0.8,0.1,1.1,0.4c0.4,0.4,0.5,0.9,0.5,1.6V13.4z"/>
			<path class="st1" d="M77.1,13.4h-0.9l-0.1-0.5h0c-0.3,0.4-0.8,0.6-1.4,0.6c-0.4,0-0.8-0.1-1.1-0.4c-0.2-0.3-0.4-0.6-0.4-1     c0-0.6,0.2-1,0.7-1.3c0.5-0.3,1.2-0.5,2-0.4v-0.1c0-0.6-0.3-0.9-1-0.9c-0.5,0-0.9,0.1-1.2,0.3L73.5,9c0.4-0.3,1-0.4,1.6-0.4     c1.2,0,1.8,0.6,1.8,1.9v1.7C77,12.8,77,13.2,77.1,13.4z M76,11.8v-0.7c-1.2,0-1.7,0.3-1.7,1c0,0.2,0.1,0.4,0.2,0.6     c0.1,0.1,0.3,0.2,0.5,0.2c0.2,0,0.4-0.1,0.6-0.2c0.2-0.1,0.3-0.3,0.4-0.6C76,11.9,76,11.9,76,11.8z"/>
			<path class="st1" d="M81.3,9.6c-0.1,0-0.2,0-0.3,0c-0.4,0-0.7,0.1-0.9,0.4c-0.2,0.2-0.3,0.6-0.3,0.9v2.5h-1l0-3.2     c0-0.5,0-1,0-1.5h0.9l0,0.9h0c0.1-0.3,0.3-0.6,0.5-0.7c0.2-0.2,0.5-0.3,0.8-0.3c0.1,0,0.2,0,0.3,0V9.6z"/>
			<path class="st1" d="M86.8,8.7c0,0.4,0,0.8,0,1.3v2.7c0,1-0.2,1.7-0.7,2.1c-0.4,0.4-1,0.6-1.7,0.6c-0.7,0-1.2-0.1-1.6-0.4     l0.2-0.8c0.4,0.2,0.8,0.4,1.3,0.4c0.9,0,1.4-0.5,1.4-1.5v-0.5h0c-0.3,0.5-0.8,0.7-1.4,0.7c-0.6,0-1-0.2-1.4-0.6     c-0.4-0.4-0.6-1-0.6-1.6c0-0.8,0.2-1.4,0.6-1.8c0.4-0.4,0.9-0.6,1.4-0.6c0.6,0,1.1,0.2,1.4,0.7h0l0-0.6H86.8z M85.7,11.4v-0.8     c0-0.3-0.1-0.6-0.3-0.8c-0.2-0.2-0.5-0.3-0.8-0.3c-0.4,0-0.7,0.1-0.9,0.4c-0.2,0.3-0.3,0.7-0.3,1.2c0,0.5,0.1,0.8,0.3,1.1     c0.2,0.3,0.5,0.5,0.9,0.5c0.2,0,0.4-0.1,0.6-0.2c0.2-0.1,0.3-0.3,0.4-0.6C85.7,11.7,85.7,11.6,85.7,11.4z"/>
			<path class="st1" d="M92.5,10.9c0,0.2,0,0.3,0,0.5h-3.1c0,0.5,0.2,0.8,0.5,1.1c0.3,0.2,0.6,0.3,1,0.3c0.5,0,0.9-0.1,1.3-0.2     l0.2,0.7c-0.4,0.2-1,0.3-1.6,0.3c-0.7,0-1.3-0.2-1.7-0.6c-0.4-0.4-0.6-1-0.6-1.7c0-0.7,0.2-1.3,0.6-1.8c0.4-0.5,1-0.8,1.6-0.8     c0.7,0,1.2,0.3,1.5,0.8C92.4,9.8,92.5,10.3,92.5,10.9z M91.5,10.6c0-0.3-0.1-0.6-0.2-0.8c-0.2-0.3-0.5-0.4-0.8-0.4     c-0.3,0-0.6,0.1-0.8,0.4c-0.2,0.2-0.3,0.5-0.3,0.8H91.5z"/>
			<path class="st1" d="M96.5,9.6c-0.1,0-0.2,0-0.3,0c-0.4,0-0.7,0.1-0.9,0.4c-0.2,0.2-0.3,0.6-0.3,0.9v2.5h-1l0-3.2     c0-0.5,0-1,0-1.5h0.9l0,0.9h0c0.1-0.3,0.3-0.6,0.5-0.7c0.2-0.2,0.5-0.3,0.8-0.3c0.1,0,0.2,0,0.3,0V9.6z"/>
			<path class="st1" d="M104.9,13.4H104l0-0.8h0c-0.3,0.6-0.8,0.9-1.5,0.9c-0.6,0-1-0.2-1.4-0.7c-0.4-0.4-0.6-1-0.6-1.7     c0-0.8,0.2-1.4,0.6-1.9c0.4-0.4,0.9-0.7,1.5-0.7c0.6,0,1.1,0.2,1.3,0.6h0V6.6h1v5.6C104.9,12.6,104.9,13,104.9,13.4z M103.8,11.4     v-0.8c0-0.1,0-0.2,0-0.3c-0.1-0.3-0.2-0.5-0.4-0.6c-0.2-0.2-0.4-0.3-0.7-0.3c-0.4,0-0.7,0.2-0.9,0.5c-0.2,0.3-0.3,0.7-0.3,1.2     c0,0.5,0.1,0.8,0.3,1.1c0.2,0.3,0.5,0.5,0.9,0.5c0.3,0,0.6-0.1,0.8-0.4C103.7,12.1,103.8,11.8,103.8,11.4z"/>
			<path class="st1" d="M110.2,13.4h-0.9l-0.1-0.5h0c-0.3,0.4-0.8,0.6-1.4,0.6c-0.4,0-0.8-0.1-1.1-0.4c-0.2-0.3-0.4-0.6-0.4-1     c0-0.6,0.2-1,0.7-1.3c0.5-0.3,1.2-0.5,2-0.4v-0.1c0-0.6-0.3-0.9-1-0.9c-0.5,0-0.9,0.1-1.2,0.3L106.7,9c0.4-0.3,1-0.4,1.6-0.4     c1.2,0,1.8,0.6,1.8,1.9v1.7C110.2,12.8,110.2,13.2,110.2,13.4z M109.2,11.8v-0.7c-1.2,0-1.7,0.3-1.7,1c0,0.2,0.1,0.4,0.2,0.6     c0.1,0.1,0.3,0.2,0.5,0.2c0.2,0,0.4-0.1,0.6-0.2c0.2-0.1,0.3-0.3,0.4-0.6C109.2,11.9,109.2,11.9,109.2,11.8z"/>
			<path class="st1" d="M116.1,13.4h-1v-2.7c0-0.8-0.3-1.2-0.9-1.2c-0.3,0-0.6,0.1-0.8,0.3c-0.2,0.2-0.3,0.5-0.3,0.8v2.8h-1v-3.4     c0-0.4,0-0.9,0-1.3h0.9l0,0.7h0c0.1-0.2,0.3-0.4,0.5-0.6c0.3-0.2,0.6-0.3,0.9-0.3c0.4,0,0.8,0.1,1.1,0.4c0.4,0.3,0.5,0.9,0.5,1.6     V13.4z"/>
			<path class="st1" d="M120.8,12.1c0,0.4-0.2,0.8-0.5,1.1c-0.3,0.3-0.8,0.4-1.3,0.4c-0.5,0-1-0.1-1.4-0.3l0.2-0.8     c0.4,0.2,0.7,0.3,1.2,0.3c0.5,0,0.8-0.2,0.8-0.6c0-0.2-0.1-0.3-0.2-0.4c-0.1-0.1-0.3-0.2-0.6-0.3c-0.8-0.3-1.3-0.8-1.3-1.4     c0-0.4,0.2-0.7,0.5-1c0.3-0.3,0.7-0.4,1.2-0.4c0.5,0,0.9,0.1,1.2,0.3l-0.2,0.8c-0.3-0.2-0.6-0.3-1-0.3c-0.2,0-0.4,0.1-0.5,0.2     c-0.1,0.1-0.2,0.2-0.2,0.4c0,0.2,0.1,0.3,0.2,0.4c0.1,0.1,0.3,0.2,0.6,0.3C120.4,11,120.8,11.4,120.8,12.1z"/>
		</g>
	</g>
</g>
</svg>